<?xml version="1.0" encoding="UTF-8" standalone="no"?>
<svg
   height="48"
   viewBox="0 -960 960 960"
   width="48"
   version="1.1"
   id="svg1"
   sodipodi:docname="add.svg"
   inkscape:version="1.3 (0e150ed, 2023-07-21)"
   xmlns:inkscape="http://www.inkscape.org/namespaces/inkscape"
   xmlns:sodipodi="http://sodipodi.sourceforge.net/DTD/sodipodi-0.dtd"
   xmlns="http://www.w3.org/2000/svg"
   xmlns:svg="http://www.w3.org/2000/svg">
  <defs
     id="defs1" />
  <sodipodi:namedview
     id="namedview1"
     pagecolor="#505050"
     bordercolor="#eeeeee"
     borderopacity="1"
     inkscape:showpageshadow="0"
     inkscape:pageopacity="0"
     inkscape:pagecheckerboard="0"
     inkscape:deskcolor="#d1d1d1"
     inkscape:zoom="4.9166667"
     inkscape:cx="23.898305"
     inkscape:cy="24"
     inkscape:window-width="1312"
     inkscape:window-height="449"
     inkscape:window-x="0"
     inkscape:window-y="38"
     inkscape:window-maximized="0"
     inkscape:current-layer="svg1" />
  <path
     d="M458.615-458.615H246.384q-9.538 0-15.961-6.67Q224-471.954 224-480.9q0-8.946 6.423-15.215 6.423-6.27 15.961-6.27h212.231v-212.231q0-8.988 6.468-15.686T480.198-737q8.648 0 15.417 6.698 6.77 6.698 6.77 15.686v212.231h212.231q8.563 0 14.974 6.485 6.41 6.486 6.41 15.432 0 8.946-6.41 15.399-6.411 6.454-14.974 6.454H502.385v212.231q0 8.563-6.76 14.974-6.761 6.41-15.841 6.41-8.655 0-14.912-6.41-6.257-6.411-6.257-14.974v-212.231Z"
     id="path1"
     style="fill:#ffffff" />
</svg>
