<?xml version="1.0" encoding="UTF-8" standalone="no"?>
<svg
   height="48"
   viewBox="0 -960 960 960"
   width="48"
   version="1.1"
   id="svg1"
   sodipodi:docname="dashlane.svg"
   inkscape:version="1.3 (0e150ed, 2023-07-21)"
   xmlns:inkscape="http://www.inkscape.org/namespaces/inkscape"
   xmlns:sodipodi="http://sodipodi.sourceforge.net/DTD/sodipodi-0.dtd"
   xmlns="http://www.w3.org/2000/svg"
   xmlns:svg="http://www.w3.org/2000/svg">
  <defs
     id="defs1" />
  <sodipodi:namedview
     id="namedview1"
     pagecolor="#505050"
     bordercolor="#eeeeee"
     borderopacity="1"
     inkscape:showpageshadow="0"
     inkscape:pageopacity="0"
     inkscape:pagecheckerboard="0"
     inkscape:deskcolor="#d1d1d1"
     inkscape:zoom="4.9166667"
     inkscape:cx="23.898305"
     inkscape:cy="24"
     inkscape:window-width="1312"
     inkscape:window-height="449"
     inkscape:window-x="0"
     inkscape:window-y="38"
     inkscape:window-maximized="0"
     inkscape:current-layer="svg1" />
  <path
     d="M278-265q-89.583 0-152.292-62.707Q63-390.414 63-479.995q0-89.582 62.708-152.294Q188.417-695 278-695q66.76 0 119.38 35.692 52.62 35.692 75.466 94.077h355.77q28.25 0 48.317 20.067Q897-525.096 897-496.846v33.692q0 25.25-16.567 44.318-16.567 19.067-39.817 23.067h-36.77v62.385q0 28.25-19.682 48.317Q764.481-265 735.462-265H710q-28.25 0-48.317-20.067-20.068-20.067-20.068-48.317v-61.385H472.846Q450-336.384 397.38-300.692 344.76-265 278-265Zm.124-43.769q69.568 0 112.632-43.864 43.064-43.863 50.992-85.905h246.098v105.154q0 10.769 6.923 17.692t17.692 6.923h23.001q10.769 0 17.692-6.923t6.923-17.692v-105.154h68.539q10.769 0 17.692-7.308t6.923-17.308v-33.692q0-10-6.923-17.308t-17.692-7.308H441.539q-7.891-42.042-50.901-85.905-43.01-43.864-112.67-43.864-71.353 0-121.276 50.047t-49.923 121.308q0 71.261 50.047 121.184t121.308 49.923ZM278-426.615q21.846 0 37.615-15.77 15.77-15.769 15.77-37.615 0-21.846-15.77-37.615-15.769-15.77-37.615-15.77-21.846 0-37.615 15.77-15.77 15.769-15.77 37.615 0 21.846 15.77 37.615 15.769 15.77 37.615 15.77ZM278-480Z"
     id="path1"
     style="fill:#ffffff" />
</svg>
