<?xml version="1.0" encoding="UTF-8" standalone="no"?>
<svg
   height="48"
   viewBox="0 -960 960 960"
   width="48"
   version="1.1"
   id="svg1"
   sodipodi:docname="left.svg"
   inkscape:version="1.3 (0e150ed, 2023-07-21)"
   xmlns:inkscape="http://www.inkscape.org/namespaces/inkscape"
   xmlns:sodipodi="http://sodipodi.sourceforge.net/DTD/sodipodi-0.dtd"
   xmlns="http://www.w3.org/2000/svg"
   xmlns:svg="http://www.w3.org/2000/svg">
  <defs
     id="defs1" />
  <sodipodi:namedview
     id="namedview1"
     pagecolor="#505050"
     bordercolor="#eeeeee"
     borderopacity="1"
     inkscape:showpageshadow="0"
     inkscape:pageopacity="0"
     inkscape:pagecheckerboard="0"
     inkscape:deskcolor="#d1d1d1"
     inkscape:zoom="4.9166667"
     inkscape:cx="23.898305"
     inkscape:cy="24"
     inkscape:window-width="1312"
     inkscape:window-height="449"
     inkscape:window-x="0"
     inkscape:window-y="38"
     inkscape:window-maximized="0"
     inkscape:current-layer="svg1" />
  <path
     d="M109.154-481 427-162.923q8.385 9.154 8.707 22.44.323 13.285-7.384 22.615-9.708 9.33-23.473 9.33-13.766 0-22.081-9.385L68.615-433.846Q58-443.077 53.577-455.423q-4.423-12.346-4.423-25.385 0-12.038 4.23-24.577 4.231-12.538 15.231-23.538L383-843.308q8.701-8.384 21.658-8.769 12.957-.385 22.342 9 8.385 9.385 8.5 22.5.115 13.115-8.5 22.5L109.154-481Z"
     id="path1"
     style="fill:#ffffff" />
</svg>
